<?xml version="1.0" standalone="no"?>
<!DOCTYPE svg PUBLIC "-//W3C//DTD SVG 20010904//EN"
 "http://www.w3.org/TR/2001/REC-SVG-20010904/DTD/svg10.dtd">
<svg version="1.0" xmlns="http://www.w3.org/2000/svg"
 width="512.000000pt" height="512.000000pt" viewBox="0 0 512.000000 512.000000"
 preserveAspectRatio="xMidYMid meet">
<metadata>
Created by potrace 1.11, written by Peter Selinger 2001-2013
</metadata>
<g transform="translate(0.000000,512.000000) scale(0.100000,-0.100000)"
fill="#000000" stroke="none">
<path d="M2513 5109 c-1077 -44 -1909 -414 -2049 -910 -24 -85 -32 -885 -10
-988 27 -129 87 -236 205 -366 60 -66 168 -156 215 -180 17 -8 65 -36 106 -60
82 -50 230 -125 251 -129 24 -3 174 -60 179 -67 5 -7 142 -50 175 -55 42 -5
251 -55 265 -63 21 -12 126 -27 315 -46 88 -9 177 -21 198 -26 49 -13 689 -12
747 0 25 6 117 18 205 26 176 18 249 31 403 69 123 31 129 31 78 5 -79 -42
-343 -131 -511 -173 -867 -214 -1895 -126 -2594 223 -370 184 -607 418 -671
663 l-19 73 0 -356 c-1 -196 3 -380 9 -408 13 -71 56 -176 97 -239 83 -125
246 -276 372 -344 l51 -28 0 -332 c0 -360 7 -420 55 -525 32 -71 104 -172 174
-246 53 -56 189 -167 205 -167 4 0 26 -13 49 -29 23 -15 62 -38 87 -51 25 -12
47 -25 50 -29 24 -29 426 -181 555 -210 28 -6 115 -26 195 -46 80 -19 190 -39
245 -45 55 -6 136 -14 180 -20 214 -25 287 -29 500 -29 213 0 286 4 500 29 44
6 125 14 180 20 55 6 145 21 200 35 55 13 157 38 227 55 70 16 151 39 180 51
29 11 103 38 163 60 108 39 248 109 353 176 29 18 55 33 59 33 16 0 157 117
211 174 74 80 154 199 181 270 40 107 44 165 38 614 -4 388 -7 432 -24 487
-40 121 -101 214 -212 322 -60 58 -261 203 -282 203 -5 0 -9 29 -9 64 l0 64
64 46 c121 86 262 248 317 364 58 123 61 159 56 652 -4 422 -5 448 -25 503
-84 230 -290 423 -612 576 -366 173 -877 287 -1370 306 -80 3 -183 7 -230 9
-47 2 -171 0 -277 -5z m437 -259 c492 -26 888 -116 1225 -280 164 -79 290
-166 379 -260 123 -131 153 -251 91 -373 -91 -182 -371 -370 -740 -496 -161
-54 -496 -130 -457 -103 8 6 -51 32 -183 82 -137 50 -200 79 -210 94 -7 12
-15 42 -18 69 l-5 48 72 33 c39 18 92 52 118 75 45 40 108 145 108 181 0 10
16 24 41 35 23 11 47 31 55 47 14 26 13 34 -1 77 -18 55 -44 83 -97 105 -20 9
-39 24 -43 35 -3 11 -32 44 -64 73 -104 96 -222 125 -546 138 -184 7 -230 11
-279 29 -32 11 -65 26 -72 32 -25 21 -38 5 -35 -43 2 -44 -1 -49 -59 -114 -34
-37 -70 -84 -80 -105 -12 -22 -29 -39 -44 -43 -42 -10 -84 -54 -101 -106 -15
-44 -15 -52 -1 -79 9 -17 32 -37 54 -46 32 -15 40 -24 50 -62 26 -94 108 -180
225 -233 l65 -29 -5 -43 c-8 -62 -18 -82 -44 -96 -13 -6 -111 -43 -218 -82
l-193 -69 -152 38 c-83 22 -189 52 -236 69 -457 159 -753 400 -753 613 0 204
283 444 706 599 283 103 637 171 987 189 227 12 247 12 460 1z m-2315 -1230
c10 -11 16 -20 13 -20 -3 0 -13 9 -23 20 -10 11 -16 20 -13 20 3 0 13 -9 23
-20z m4155 -64 c0 -2 -8 -10 -17 -17 -16 -13 -17 -12 -4 4 13 16 21 21 21 13z
m-3979 -103 c13 -16 12 -17 -3 -4 -10 7 -18 15 -18 17 0 8 8 3 21 -13z m3859
3 c0 -2 -8 -10 -17 -17 -16 -13 -17 -12 -4 4 13 16 21 21 21 13z m-1247 -133
c-7 -2 -19 -2 -25 0 -7 3 -2 5 12 5 14 0 19 -2 13 -5z m-50 -10 c-7 -2 -21 -2
-30 0 -10 3 -4 5 12 5 17 0 24 -2 18 -5z m-1276 -349 c-3 -3 -12 -4 -19 -1 -8
3 -5 6 6 6 11 1 17 -2 13 -5z m1306 -1 c-7 -2 -19 -2 -25 0 -7 3 -2 5 12 5 14
0 19 -2 13 -5z m-1236 -9 c-3 -3 -12 -4 -19 -1 -8 3 -5 6 6 6 11 1 17 -2 13
-5z m1160 0 c-3 -3 -12 -4 -19 -1 -8 3 -5 6 6 6 11 1 17 -2 13 -5z m-1084 -11
c-7 -2 -19 -2 -25 0 -7 3 -2 5 12 5 14 0 19 -2 13 -5z m1014 1 c-3 -3 -12 -4
-19 -1 -8 3 -5 6 6 6 11 1 17 -2 13 -5z m-909 -11 c-10 -2 -26 -2 -35 0 -10 3
-2 5 17 5 19 0 27 -2 18 -5z m815 0 c-7 -2 -21 -2 -30 0 -10 3 -4 5 12 5 17 0
24 -2 18 -5z m-680 -10 c-7 -2 -21 -2 -30 0 -10 3 -4 5 12 5 17 0 24 -2 18 -5z
m550 0 c-7 -2 -21 -2 -30 0 -10 3 -4 5 12 5 17 0 24 -2 18 -5z m-250 -10 c-24
-2 -62 -2 -85 0 -24 2 -5 4 42 4 47 0 66 -2 43 -4z m1878 -844 c148 -150 138
-306 -29 -474 -472 -474 -1711 -670 -2722 -431 -237 55 -528 170 -675 265 -50
32 -50 32 -15 26 19 -4 89 -20 155 -35 66 -16 199 -38 295 -50 96 -11 208 -25
248 -30 96 -13 654 -13 757 0 44 6 157 19 250 31 94 11 226 33 295 50 69 16
148 34 175 41 65 14 204 56 230 68 11 5 69 28 130 50 166 62 406 196 513 288
101 85 194 193 241 278 l23 41 36 -31 c21 -17 62 -56 93 -87z m-4091 -363 c0
-3 -4 -8 -10 -11 -5 -3 -10 -1 -10 4 0 6 5 11 10 11 6 0 10 -2 10 -4z m55
-156 c9 -16 13 -30 11 -30 -3 0 -12 14 -21 30 -9 17 -13 30 -11 30 3 0 12 -13
21 -30z m111 -152 l29 -33 -32 29 c-31 28 -38 36 -30 36 2 0 16 -15 33 -32z
m4204 18 c0 -2 -8 -10 -17 -17 -16 -13 -17 -12 -4 4 13 16 21 21 21 13z
m-2577 -683 c-7 -2 -19 -2 -25 0 -7 3 -2 5 12 5 14 0 19 -2 13 -5z m700 -20
c-7 -2 -21 -2 -30 0 -10 3 -4 5 12 5 17 0 24 -2 18 -5z"/>
</g>
</svg>
